<svg xmlns="http://www.w3.org/2000/svg" xmlns:se="http://svg-edit.googlecode.com" xmlns:xlink="http://www.w3.org/1999/xlink" xmlns:dc="http://purl.org/dc/elements/1.1/" xmlns:cc="http://creativecommons.org/ns#" xmlns:rdf="http://www.w3.org/1999/02/22-rdf-syntax-ns#" xmlns:inkscape="http://www.inkscape.org/namespaces/inkscape" viewBox="0 0 210 210">                                    <title>my vector image</title>                                    <!-- Created with Vector Paint - http://www.vectorpaint.yaks.com/ https://chrome.google.com/webstore/detail/hnbpdiengicdefcjecjbnjnoifekhgdo -->                                                                  <g class="currentLayer"><title>Layer 1</title><rect fill="#75706B" stroke-width="2" stroke-linejoin="round" stroke-dashoffset="" fill-rule="nonzero" x="14.802434921264648" y="164.98382568359375" width="133.76300048828125" height="14.076164245605469" style="color: rgb(0, 0, 0);" class="" id="svg_15"/><rect fill="#75706B" stroke-width="1" stroke-linejoin="round" stroke-dashoffset="" fill-rule="nonzero" x="119.26844024658203" y="100.291748046875" width="31.767560958862305" height="70.39348602294922" style="color: rgb(0, 0, 0);" class="" id="svg_13"/><rect fill="#75706B" stroke-width="1" stroke-linejoin="round" stroke-dashoffset="" fill-rule="nonzero" x="10.382139205932617" y="100.79854583740234" width="31.400896072387695" height="70.39348602294922" style="color: rgb(0, 0, 0);" class="" id="svg_14"/><g class="" id="svg_4"><rect fill="#75706B" stroke-width="2" stroke-linejoin="round" stroke-dashoffset="" fill-rule="nonzero" id="svg_1" x="14.002555847167969" y="87.99630737304688" width="133.0131072998047" height="14.836349487304688" style="color: rgb(0, 0, 0);" class=""/><rect fill="#75706B" stroke-width="2" stroke-linejoin="round" stroke-dashoffset="" fill-rule="nonzero" x="14.002555847167969" y="170.35855102539062" width="133.76300048828125" height="14.076164245605469" style="color: rgb(0, 0, 0);" class="" id="svg_22"/><path fill="#75706B" fill-opacity="1" stroke="none" stroke-opacity="1" stroke-width="2" stroke-dasharray="none" stroke-linejoin="round" stroke-linecap="butt" stroke-dashoffset="" fill-rule="nonzero" opacity="1" marker-start="" marker-mid="" marker-end="" d="M0.666666612029077,102.29086659191536 C0.666666612029077,94.48248046498088 6.634661342145972,88.15768770216393 14.002556070685387,88.15768770216393 C21.370450799224802,88.15768770216393 27.338445529341698,94.48248046498088 27.338445529341698,102.29086659191536 C27.338445529341698,110.09925271884984 21.370450799224802,116.4240454816668 14.002556070685387,116.4240454816668 C6.634661342145972,116.4240454816668 0.666666612029077,110.09925271884984 0.666666612029077,102.29086659191536 z" id="svg_3" class=""/><path fill="#75706B" fill-opacity="1" stroke="none" stroke-opacity="1" stroke-width="2" stroke-dasharray="none" stroke-linejoin="round" stroke-linecap="butt" stroke-dashoffset="" fill-rule="nonzero" opacity="1" marker-start="" marker-mid="" marker-end="" d="M0.666666612029077,170.14015706041403 C0.666666612029077,162.33177093347953 6.634661342145972,156.0069781706626 14.002556070685387,156.0069781706626 C21.370450799224802,156.0069781706626 27.338445529341698,162.33177093347953 27.338445529341698,170.14015706041403 C27.338445529341698,177.9485431873485 21.370450799224802,184.27333595016543 14.002556070685387,184.27333595016543 C6.634661342145972,184.27333595016543 0.666666612029077,177.9485431873485 0.666666612029077,170.14015706041403 z" class="" id="svg_5"/><path fill="#75706B" fill-opacity="1" stroke="none" stroke-opacity="1" stroke-width="2" stroke-dasharray="none" stroke-linejoin="round" stroke-linecap="butt" stroke-dashoffset="" fill-rule="nonzero" opacity="1" marker-start="" marker-mid="" marker-end="" d="M132.89892919940814,170.38843426126505 C132.89892919940814,162.58004813433055 138.86692392952506,156.2552553715136 146.23481865806446,156.2552553715136 C153.60271338660382,156.2552553715136 159.57070811672077,162.58004813433055 159.57070811672077,170.38843426126505 C159.57070811672077,178.1968203881995 153.60271338660382,184.52161315101645 146.23481865806446,184.52161315101645 C138.86692392952506,184.52161315101645 132.89892919940814,178.1968203881995 132.89892919940814,170.38843426126505 z" class="" id="svg_6"/><path fill="#75706B" fill-opacity="1" stroke="none" stroke-opacity="1" stroke-width="2" stroke-dasharray="none" stroke-linejoin="round" stroke-linecap="butt" stroke-dashoffset="" fill-rule="nonzero" opacity="1" marker-start="" marker-mid="" marker-end="" d="M132.76024565095037,102.04258704698613 C132.76024565095037,94.23420092005165 138.7282403810673,87.9094081572347 146.09613510960668,87.9094081572347 C153.46402983814605,87.9094081572347 159.432024568263,94.23420092005165 159.432024568263,102.04258704698613 C159.432024568263,109.85097317392062 153.46402983814605,116.17576593673756 146.09613510960668,116.17576593673756 C138.7282403810673,116.17576593673756 132.76024565095037,109.85097317392062 132.76024565095037,102.04258704698613 z" class="" id="svg_7"/><rect fill="#75706B" stroke-width="2" stroke-linejoin="round" stroke-dashoffset="" fill-rule="nonzero" id="svg_8" x="148.06553649902344" y="101.10533905029297" width="11.419456481933594" height="70.39348602294922" style="color: rgb(0, 0, 0);" class=""/><rect fill="#75706B" stroke-width="2" stroke-linejoin="round" stroke-dashoffset="" fill-rule="nonzero" x="0.6666666269302368" y="103.56328582763672" width="11.919393539428711" height="66.22090148925781" style="color: rgb(0, 0, 0);" class="" id="svg_21"/></g><path fill="#75706B" stroke-width="2" stroke-linejoin="round" stroke-dashoffset="" fill-rule="nonzero" marker-start="" marker-mid="" marker-end="" id="svg_31" d="M79.4832210437793,168.47939439628777 L79.4832210437793,103.06250576662032 L122.3333803896286,168.47939439628777 L79.4832210437793,168.47939439628777 z" style="color: rgb(0, 0, 0);" class="" transform="rotate(-179.90390014648438 100.90828704833984,135.7709503173828) "/><path fill="#75706B" stroke-width="2" stroke-linejoin="round" stroke-dashoffset="" fill-rule="nonzero" marker-start="" marker-mid="" marker-end="" d="M79.47241156605078,168.3923953399016 L79.47241156605078,102.97550671023417 L39.33330756447931,168.3923953399016 L79.47241156605078,168.3923953399016 z" style="color: rgb(0, 0, 0);" class="" id="svg_12" transform="rotate(-179.90390014648438 59.40285873413086,135.68394470214847) "/><g class="" id="svg_10"><path fill="#75706B" stroke-width="2" stroke-linejoin="round" stroke-dashoffset="" fill-rule="nonzero" marker-start="" marker-mid="" marker-end="" id="svg_16" d="M20.974981785236743,54.041780838400406 L20.974981785236743,54.041780838400406 C20.974981785236743,24.47146739432467 46.968125677695,0.5000000049626907 79.0322956005716,0.5000000049626907 C111.09646162698556,0.5000000049626907 137.0896094159101,24.47146739432467 137.0896094159101,54.041780838400406 L108.06095250824403,54.041780838400406 C108.06095250824403,39.25662411636362 95.0643747173203,27.27089042168134 79.0322956005716,27.27089042168134 C63.00021648382669,27.27089042168134 50.00363869290369,39.25662411636362 50.00363869290369,54.041780838400406 L20.974981785236743,54.041780838400406 z" style="color: rgb(0, 0, 0);" class=""/><rect fill="#75706B" stroke-width="2" stroke-linejoin="round" stroke-dashoffset="" fill-rule="nonzero" id="svg_18" x="21.044198989868164" y="52.92274856567383" width="28.796417236328125" height="40.457374572753906" style="color: rgb(0, 0, 0);" class=""/><rect fill="#75706B" stroke-width="2" stroke-linejoin="round" stroke-dashoffset="" fill-rule="nonzero" x="108.08088684082031" y="53.52241134643555" width="29.075090408325195" height="39.81487274169922" style="color: rgb(0, 0, 0);" class="" id="svg_20"/></g><rect fill="#75706B" stroke-width="1" stroke-linejoin="round" stroke-dashoffset="" fill-rule="nonzero" x="15.819010734558105" y="95.5250473022461" width="133.0131072998047" height="8.727668762207031" style="color: rgb(0, 0, 0);" class="" id="svg_17"/><path fill="none" fill-opacity="1" stroke="none" stroke-opacity="1" stroke-width="8" stroke-dasharray="none" stroke-linejoin="round" stroke-linecap="butt" stroke-dashoffset="" fill-rule="nonzero" opacity="1" marker-start="" marker-mid="" marker-end="" d="M5,43.5 C5,37.146408839779006 10.593922651933703,32 17.5,32 C24.406077348066297,32 30,37.146408839779006 30,43.5 C30,49.853591160220994 24.406077348066297,55 17.5,55 C10.593922651933703,55 5,49.853591160220994 5,43.5 Z" id="svg_11"/><g class=""><path fill="none" fill-opacity="1" stroke="#75706B" stroke-opacity="1" stroke-width="5" stroke-dasharray="none" stroke-linejoin="round" stroke-linecap="butt" stroke-dashoffset="" fill-rule="nonzero" opacity="1" marker-start="" marker-mid="" marker-end="" d="M58.43929623874837,144.68625701679025 C58.43929623874837,132.68971625230483 67.9177960010452,122.97251823307167 79.61964755943632,122.97251823307167 C91.32149911782744,122.97251823307167 100.79999888012429,132.68971625230483 100.79999888012429,144.68625701679025 C100.79999888012429,156.68279778127567 91.32149911782744,166.39999580050883 79.61964755943632,166.39999580050883 C67.9177960010452,166.39999580050883 58.43929623874837,156.68279778127567 58.43929623874837,144.68625701679025 z" id="svg_25" class=""/><path fill="none" fill-opacity="1" stroke="#75706B" stroke-opacity="1" stroke-width="4" stroke-dasharray="none" stroke-linejoin="round" stroke-linecap="butt" stroke-dashoffset="" fill-rule="nonzero" opacity="1" marker-start="" marker-mid="" marker-end="" d="M66.87083274956554,144.90892699240246 C66.87083274956554,137.5657934718387 72.67266268501047,131.61785532018212 79.83541569173258,131.61785532018212 C86.99816869845472,131.61785532018212 92.79999863389966,137.5657934718387 92.79999863389966,144.90892699240246 C92.79999863389966,152.25206051296612 86.99816869845472,158.1999986646227 79.83541569173258,158.1999986646227 C72.67266268501047,158.1999986646227 66.87083274956554,152.25206051296612 66.87083274956554,144.90892699240246 z" class="" id="svg_27"/><path fill="#75706B" fill-opacity="1" stroke="none" stroke-opacity="1" stroke-width="2" stroke-dasharray="none" stroke-linejoin="round" stroke-linecap="butt" stroke-dashoffset="" fill-rule="nonzero" opacity="1" marker-start="" marker-mid="" marker-end="" d="M73.47321637248098,144.91127998111165 C73.47321637248098,141.21133909987657 76.37443689203461,138.21438698607614 79.95619061987865,138.21438698607614 C83.53794434772273,138.21438698607614 86.43916486727633,141.21133909987657 86.43916486727633,144.91127998111165 C86.43916486727633,148.61122086234678 83.53794434772273,151.60817297614724 79.95619061987865,151.60817297614724 C76.37443689203461,151.60817297614724 73.47321637248098,148.61122086234678 73.47321637248098,144.91127998111165 z" id="svg_38" class="" transform="rotate(-179.90390014648438 79.95618438720702,144.9112854003906) "/></g></g></svg>